<svg width="49" height="58" viewBox="0 0 49 58" fill="none" xmlns="http://www.w3.org/2000/svg">
<path d="M14.1291 0.756957C13.9929 0.511156 14.082 0.20016 14.3277 0.063903C14.5737 -0.072536 14.8843 0.0167834 15.0207 0.262548L21.2407 11.4879C21.3769 11.7337 21.2878 12.0448 21.042 12.181C20.923 12.2471 20.7852 12.2628 20.6544 12.2252C20.5235 12.1877 20.4152 12.1014 20.3491 11.9823L14.1291 0.756957Z" fill="white"/>
<path d="M41.8293 22.4152C41.8293 20.4374 43.4376 18.8285 45.4146 18.8285C47.3917 18.8285 49 20.4374 49 22.4152V37.3594C49 39.3371 47.3917 40.946 45.4146 40.946C43.4376 40.946 41.8293 39.3371 41.8293 37.3594V22.4152Z" fill="white"/>
<path d="M26.8903 39.469C26.8903 37.4913 28.4986 35.8824 30.4756 35.8824C32.4527 35.8824 34.061 37.4913 34.061 39.469V54.4132C34.061 56.3909 32.4527 58 30.4756 58C28.4986 58 26.8903 56.3909 26.8903 54.4132V39.469Z" fill="white"/>
<path d="M33.9793 0.262492C34.0723 0.0947857 34.2465 0 34.4259 0C34.5096 0 34.5941 0.0205897 34.6722 0.0638464C34.918 0.200249 35.0071 0.511099 34.8709 0.757083L28.6509 11.9823C28.5848 12.1013 28.4763 12.1876 28.3454 12.2251C28.2146 12.2629 28.0768 12.2469 27.9579 12.1809C27.7121 12.0447 27.623 11.7337 27.7591 11.4879L33.9793 0.262492Z" fill="white"/>
<path d="M0 22.4152C0 20.4374 1.6083 18.8285 3.58536 18.8285C5.56241 18.8285 7.17073 20.4374 7.17073 22.4152V37.3594C7.17073 39.3371 5.56241 40.946 3.58536 40.946C1.6083 40.946 0 39.3371 0 37.3594V22.4152Z" fill="white"/>
<path d="M14.939 39.469C14.939 37.4913 16.5473 35.8824 18.5244 35.8824C20.5014 35.8824 22.1097 37.4913 22.1097 39.469V54.4132C22.1097 56.3909 20.5014 58 18.5244 58C16.5473 58 14.939 56.3909 14.939 54.4132V39.469Z" fill="white"/>
<path fill-rule="evenodd" clip-rule="evenodd" d="M24.5 3.42719C33.3266 3.42719 40.4832 10.0296 40.4935 18.1779H8.50646C8.51677 10.0296 15.6734 3.42719 24.5 3.42719ZM17.1184 12.3234C16.382 12.3234 15.7826 11.7239 15.7826 10.9872C15.7826 10.2504 16.382 9.65105 17.1184 9.65105C17.8548 9.65105 18.4541 10.2504 18.4541 10.9872C18.4541 11.7239 17.8548 12.3234 17.1184 12.3234ZM31.8816 12.3234C31.1452 12.3234 30.5459 11.7239 30.5459 10.9872C30.5459 10.2504 31.1452 9.65105 31.8816 9.65105C32.618 9.65105 33.2173 10.2504 33.2173 10.9872C33.2173 11.7239 32.618 12.3234 31.8816 12.3234Z" fill="white"/>
<path d="M8.50645 42.6337V19.4438H40.4935V42.6337C40.4935 44.7699 38.7624 46.5017 36.627 46.5017H12.373C10.2376 46.5017 8.50645 44.7699 8.50645 42.6337Z" fill="white"/>
</svg>
