<svg width="49" height="58" viewBox="0 0 49 58" fill="none" xmlns="http://www.w3.org/2000/svg">
<path d="M47.973 45.1996C47.0933 47.226 46.052 49.0912 44.8454 50.8061C43.2009 53.1439 41.8543 54.7622 40.8166 55.6608C39.2079 57.1358 37.4843 57.8912 35.6386 57.9342C34.3136 57.9342 32.7157 57.5583 30.8557 56.7957C28.9896 56.0367 27.2746 55.6608 25.7065 55.6608C24.0619 55.6608 22.2981 56.0367 20.4115 56.7957C18.522 57.5583 16.9999 57.9556 15.8361 57.995C14.0662 58.0702 12.3021 57.2933 10.5411 55.6608C9.41722 54.6834 8.01142 53.0079 6.32734 50.6343C4.52045 48.0995 3.03494 45.1602 1.87116 41.8092C0.624799 38.1897 0 34.6847 0 31.2915C0 27.4045 0.842402 24.0521 2.52972 21.2428C3.8558 18.9862 5.61995 17.2061 7.82793 15.8994C10.0359 14.5926 12.4216 13.9267 14.9909 13.8841C16.3967 13.8841 18.2402 14.3177 20.5311 15.1698C22.8156 16.0247 24.2824 16.4583 24.9255 16.4583C25.4063 16.4583 27.0358 15.9513 29.7982 14.9406C32.4105 14.0034 34.6153 13.6153 36.4214 13.7681C41.3157 14.162 44.9927 16.0856 47.438 19.5511C43.0608 22.1954 40.8956 25.8991 40.9387 30.6503C40.9782 34.3511 42.3247 37.4307 44.9711 39.8759C46.1705 41.0108 47.5098 41.888 49 42.5109C48.6768 43.4453 48.3357 44.3404 47.973 45.1996ZM36.7482 1.16032C36.7482 4.06099 35.6853 6.76933 33.5668 9.27614C31.0101 12.2562 27.9177 13.9783 24.5643 13.7066C24.5215 13.3586 24.4968 12.9923 24.4968 12.6075C24.4968 9.82283 25.7126 6.84272 27.8718 4.40608C28.9497 3.17236 30.3207 2.14654 31.9832 1.32823C33.6422 0.522128 35.2113 0.0763286 36.6872 0C36.7303 0.387765 36.7482 0.775566 36.7482 1.16029V1.16032Z" fill="white"/>
</svg>
